# xmcd
#
# Track frame offsets:
#	150
#	19180
#	35882
#	50502
#	70077
#	85435
#	106092
#	126872
#	146310
#	167320
#	188285
#	204435
#	227160
#	248300
#	266892
#	286162
#	304937
#	324952
#
# Disc length: 4545 seconds
#
# Revision: 2
# Processed by: cddbd v1.5.2PL0 Copyright (c) Steve Scherf et al.
# Submitted via: audiograbber 1.83.01
#
DISCID=ed11bf12
DTITLE=Various Artist - Baila Latino
DYEAR=2000
DGENRE=Salsa
TTITLE0=Marc Anthony - I Need To Know (Pablo`s Miami Mix Radio Edit)
TTITLE1=Ricky Martin - Livin' La Vida Loca (Scissorhands English Radio Mix)
TTITLE2=Elvis Crespo - Suavemente (Hot Head Mix)
TTITLE3=Chayanne - Salome' (Pablo Flores Club Mix Radio Edit)
TTITLE4=Javiera - Ande Mi Corazon
TTITLE5=Mdo - Groove With Me Tonight (Pablo Flores Spanish Remix)
TTITLE6=Shakira - Ciega Sordomuda (12" Single Edit)
TTITLE7=DLG (Dark Latin Groove) - Magdalena, Mi Amor (Quimbara)
TTITLE8=Fey - Disego Con Flores (House Mix)
TTITLE9=Jenifer Delgado - Que To Tienes
TTITLE10=Grupo Mania - Como Baila (Radio Mix)
TTITLE11=Jenifer Lopez (Duet With Marc Anthony) - No Me Ames (Tropical Mix)
TTITLE12=Franco De Vita - Traigo Una Pena (Dance Mix)
TTITLE13=Donato Y Estafano - De Hombre A Mujer (Radio Mix Version Edited)
TTITLE14=Latin Fresh - Tranquilo (Dj Grego`s Calle Mix)
TTITLE15=El Consorcio - Son Al Son (Short Version)
TTITLE16=Francisko Paz - Zulu (Radio Edit)
TTITLE17=Gloria Estefan - You'll Be Mine (Partytime) (Rosabel`s Fiesta Edit)
EXTD=
EXTT0=
EXTT1=
EXTT2=
EXTT3=
EXTT4=
EXTT5=
EXTT6=
EXTT7=
EXTT8=
EXTT9=
EXTT10=
EXTT11=
EXTT12=
EXTT13=
EXTT14=
EXTT15=
EXTT16=
EXTT17=
PLAYORDER=
